<?xml version="1.0" encoding="UTF-8" standalone="no"?>
<!-- Created with Inkscape (http://www.inkscape.org/) -->

<svg
   xmlns:dc="http://purl.org/dc/elements/1.1/"
   xmlns:cc="http://creativecommons.org/ns#"
   xmlns:rdf="http://www.w3.org/1999/02/22-rdf-syntax-ns#"
   xmlns:svg="http://www.w3.org/2000/svg"
   xmlns="http://www.w3.org/2000/svg"
   version="1.1"
   width="169.02925"
   height="61"
   id="svg2"
   xml:space="preserve"><metadata
     id="metadata8"><rdf:RDF><cc:Work
         rdf:about=""><dc:format>image/svg+xml</dc:format><dc:type
           rdf:resource="http://purl.org/dc/dcmitype/StillImage" /><dc:title></dc:title></cc:Work></rdf:RDF></metadata><defs
     id="defs6"><clipPath
       id="clipPath16"><path
         d="m 0,841.89 595.276,0 L 595.276,0 0,0 0,841.89 z"
         id="path18" /></clipPath></defs><g
     transform="matrix(1.25,0,0,-1.25,-176.25959,120.85695)"
     id="g10"><g
       transform="translate(141.16767,84.98856)"
       id="g574"><path
         d="m 0,0 9.02,0 0,-5.697 0.142,0 c 1.96,4.121 5.938,6.597 10.667,6.597 1.129,0 2.175,-0.216 3.226,-0.521 l 0,-8.709 c -1.494,0.377 -2.926,0.674 -4.351,0.674 -8.487,0 -9.684,-7.133 -9.684,-9.088 l 0,-19.299 -9.02,0 L 0,0 z"
         id="path576"
         style="fill:#1c649c;fill-opacity:1;fill-rule:nonzero;stroke:none" /></g><g
       transform="translate(219.80877,68.24446)"
       id="g582"><path
         d="m 0,0 c 0,1.955 1.203,9.088 9.688,9.088 1.423,0 2.851,-0.297 4.353,-0.674 l 0,8.709 c -1.053,0.305 -2.102,0.522 -3.227,0.522 -4.736,0 -8.712,-2.477 -10.668,-6.598 l -0.146,0 0,5.697 -9.014,0 0,-28.373 9.014,0 L 0,0 z"
         id="path584"
         style="fill:#37a1cd;fill-opacity:1;fill-rule:nonzero;stroke:none" /></g><g
       transform="translate(256.46707,56.15656)"
       id="g586"><path
         d="m 0,0 c -6.602,0 -10.586,5.182 -10.586,10.822 0,5.627 3.984,10.805 10.586,10.805 6.613,0 10.59,-5.178 10.59,-10.805 C 10.59,5.182 6.613,0 0,0 m 0,29.732 c -10.887,0 -19.596,-7.578 -19.596,-18.91 0,-3.976 1.086,-7.478 2.942,-10.359 l 6.332,0 0,-5.942 C -7.33,-7.168 -3.801,-8.111 0,-8.111 c 10.893,0 19.604,7.586 19.604,18.933 0,11.332 -8.711,18.91 -19.604,18.91"
         id="path588"
         style="fill:#37a1cd;fill-opacity:1;fill-rule:nonzero;stroke:none" /></g><g
       transform="translate(185.57057,79.13706)"
       id="g594"><path
         d="m 0,0 c 5.629,0 9.084,-3.301 9.16,-8.564 l -18.473,0 C -8.635,-3.387 -5.334,0 0,0 m 0.367,-23.883 c -5.021,0 -9.078,3.229 -9.68,8.559 l 27.483,0 0,2.482 c 0,12.535 -6.836,19.594 -16.897,19.594 -10.886,0 -19.603,-7.578 -19.603,-18.91 0,-11.043 8.258,-18.504 18.734,-18.897 l 0,7.174 c -0.011,0 -0.021,-0.002 -0.037,-0.002"
         id="path596"
         style="fill:#1c649c;fill-opacity:1;fill-rule:nonzero;stroke:none" /></g><g
       transform="translate(192.17207,96.48856)"
       id="g598"><path
         d="m 0,0 c -1.602,-2.467 -3.771,-4.484 -6.342,-5.922 l 0,5.959 L 0,0.033 0,0 z"
         id="path600"
         style="fill:#1c649c;fill-opacity:1;fill-rule:nonzero;stroke:none" /></g></g></svg>